<svg version="1.1" id="Layer_1" xmlns="http://www.w3.org/2000/svg" xmlns:xlink="http://www.w3.org/1999/xlink" x="0px" y="0px"
	 width="100%" viewBox="0 0 1873 512" enable-background="new 0 0 1873 512" xml:space="preserve">
<path fill="#000000" opacity="1.000000" stroke="none" 
	d="
M264.000000,1.000000 
	C800.608398,1.000000 1337.216797,1.000000 1873.912598,1.000000 
	C1873.912598,171.589798 1873.912598,342.179657 1873.912598,513.000000 
	C1347.967285,513.000000 821.934570,513.000000 295.149445,512.634399 
	C295.400635,511.846100 296.368835,511.205841 297.413483,511.036072 
	C304.453003,509.892181 311.623688,509.330963 318.538666,507.685181 
	C343.942169,501.638977 368.190094,492.602142 390.978333,479.621582 
	C408.854767,469.438843 425.468323,457.489777 440.009125,443.123779 
	C451.741150,431.532806 462.859222,419.021210 472.460236,405.634583 
	C492.692871,377.424469 506.744293,346.137726 513.920593,312.025635 
	C515.819702,302.998505 516.959778,293.792511 518.061218,284.622131 
	C519.148438,275.570618 519.745605,266.460236 520.570679,257.231506 
	C476.775177,257.231506 434.048340,257.231506 391.960999,257.231506 
	C390.609283,266.225220 389.514832,274.928894 387.963287,283.550262 
	C384.101471,305.009460 374.240265,323.747864 360.202087,340.078094 
	C347.893829,354.395996 332.958374,365.468109 315.495636,373.297852 
	C294.035645,382.919891 271.659058,386.434906 248.608536,383.768341 
	C231.332474,381.769745 214.822006,376.429382 199.622940,367.319458 
	C178.720947,354.791290 162.435318,338.105164 150.926956,316.609619 
	C140.940369,297.956482 136.148849,278.071655 135.907959,256.553986 
	C136.693985,221.104675 149.198410,191.172226 174.068832,166.382233 
	C198.907959,141.623398 229.218018,130.013321 264.000000,129.137054 
	C264.000000,85.883430 264.000000,43.441715 264.000000,1.000000 
M183.019470,257.886902 
	C183.678162,263.226593 183.997772,268.634399 185.053833,273.894287 
	C189.789902,297.483734 203.082611,315.018829 223.774902,326.912109 
	C236.925720,334.470795 251.145325,337.687439 266.458008,337.171143 
	C275.755341,336.857666 284.711639,335.335022 293.084137,331.829437 
	C305.815216,326.498871 317.071747,318.954926 325.847992,307.806183 
	C337.661743,292.798767 343.943359,276.089142 343.988007,256.092133 
	C343.290497,240.664398 339.171265,226.591660 330.583649,213.354797 
	C325.108154,204.914886 318.891266,197.708694 310.883148,192.061539 
	C296.061188,181.609451 279.644135,176.401184 261.237000,176.836563 
	C248.985352,177.126343 237.411072,179.775253 226.808029,185.257675 
	C216.726974,190.470245 207.695084,197.390991 200.581070,206.742386 
	C189.211853,221.687256 183.068268,238.192856 183.019470,257.886902 
M1146.001099,218.500000 
	C1146.001099,268.571350 1146.001099,318.642670 1146.001099,369.000000 
	C1148.379517,369.000000 1150.185303,369.000000 1151.990967,369.000000 
	C1180.141479,369.000000 1208.292114,369.046143 1236.442383,368.955078 
	C1241.192749,368.939728 1245.990601,368.657074 1250.682251,367.943359 
	C1272.467651,364.629456 1295.819946,349.338013 1299.389160,323.678711 
	C1302.021484,304.754761 1294.791382,283.520447 1279.015747,273.084290 
	C1274.442993,270.059235 1269.263916,267.950531 1264.078735,265.275177 
	C1273.561279,261.796753 1281.110474,255.879639 1286.961426,247.958817 
	C1293.984253,238.451202 1295.733032,227.641678 1295.149780,215.942963 
	C1294.537842,203.669434 1289.812744,193.475708 1281.418091,185.073868 
	C1270.228027,173.874023 1255.848389,168.614944 1240.492554,168.223846 
	C1210.529297,167.460724 1180.532837,167.996552 1150.550049,168.010651 
	C1149.113281,168.011337 1147.676514,168.167053 1146.001099,168.264435 
	C1146.001099,184.899429 1146.001099,201.199707 1146.001099,218.500000 
M1465.500488,209.000854 
	C1459.405762,209.000854 1453.311035,209.000854 1446.715820,209.000854 
	C1446.715820,216.589981 1446.715820,223.562027 1446.715820,229.640305 
	C1443.737671,226.905563 1440.794312,223.714035 1437.379150,221.151276 
	C1422.541504,210.017075 1406.137573,205.002319 1387.289795,206.808121 
	C1370.482666,208.418442 1356.059570,214.565277 1344.372314,226.321167 
	C1329.151611,241.631271 1321.906494,260.875885 1321.235718,282.159882 
	C1320.892944,293.036224 1321.629150,304.333679 1324.266357,314.841248 
	C1331.078857,341.984772 1347.203125,361.454163 1374.968994,369.422577 
	C1389.979492,373.730408 1404.848389,372.927368 1419.564575,367.223694 
	C1430.422729,363.015350 1439.330811,356.460510 1447.129395,346.442993 
	C1447.129395,354.627808 1447.129395,361.674561 1447.129395,368.697418 
	C1460.964233,368.697418 1474.356689,368.697418 1487.705200,368.697418 
	C1487.705200,315.353668 1487.705200,262.313049 1487.705200,209.000854 
	C1480.442383,209.000854 1473.471313,209.000854 1465.500488,209.000854 
M1796.048950,287.427490 
	C1818.661377,261.542450 1841.273804,235.657394 1864.560181,209.000809 
	C1848.052124,209.000809 1833.056519,209.194229 1818.070557,208.896835 
	C1812.761108,208.791489 1809.113647,210.077072 1806.346069,214.941971 
	C1804.114990,218.863571 1800.675903,222.089813 1797.835571,225.674286 
	C1789.533447,236.151245 1781.278931,246.665985 1772.973389,257.140076 
	C1768.280029,263.058655 1763.522705,268.926422 1757.860962,275.979584 
	C1757.860962,234.693741 1757.860962,194.994095 1757.860962,155.306274 
	C1744.036987,155.306274 1730.643677,155.306274 1717.295898,155.306274 
	C1717.295898,226.650955 1717.295898,297.689636 1717.295898,368.684174 
	C1730.987305,368.684174 1744.381226,368.684174 1758.260864,368.684174 
	C1758.260864,346.723633 1758.260864,325.075470 1758.260864,302.522583 
	C1764.165894,309.950378 1769.448975,316.568054 1774.702148,323.209473 
	C1784.510376,335.609650 1794.410400,347.939636 1804.048828,360.470734 
	C1808.316528,366.019287 1812.406006,370.220856 1820.597412,369.235382 
	C1829.300293,368.188416 1838.226807,369.000000 1847.055664,369.000000 
	C1852.631348,369.000000 1858.207153,369.000000 1865.085693,369.000000 
	C1863.161255,366.885406 1862.120361,365.735107 1861.072144,364.591492 
	C1857.281372,360.455078 1853.429565,356.372986 1849.706665,352.176361 
	C1837.051270,337.910675 1824.451904,323.595215 1811.808228,309.319061 
	C1806.244019,303.036652 1800.595459,296.828400 1795.100464,290.486755 
	C1794.749268,290.081543 1795.394043,288.813385 1796.048950,287.427490 
M832.657043,335.002594 
	C818.711548,329.477448 809.867554,315.686646 810.298889,302.000000 
	C812.078186,302.000000 813.875366,302.000000 815.672546,302.000000 
	C850.998413,302.000000 886.324524,301.932434 921.649719,302.089050 
	C925.867249,302.107758 927.168518,300.478455 927.011414,296.681732 
	C926.642822,287.772736 927.209290,278.723816 925.834778,269.977020 
	C921.998596,245.564438 909.663391,226.438232 887.274109,215.175156 
	C869.551697,206.259796 850.556885,204.469345 830.967651,207.949585 
	C806.773682,212.247940 788.422913,224.805908 777.225342,246.629547 
	C766.544983,267.444916 765.441040,289.832336 770.261475,312.323669 
	C774.021484,329.866974 782.819519,344.897644 797.434753,355.829834 
	C808.696899,364.253815 821.288696,369.362915 835.473389,371.160248 
	C850.044556,373.006622 864.324463,372.283417 877.957520,367.353088 
	C897.503357,360.284424 911.778015,346.974182 920.016663,327.626007 
	C921.281250,324.656097 922.301758,321.582245 923.469238,318.465179 
	C922.243347,318.169220 921.925415,318.025696 921.607361,318.025269 
	C908.943420,318.008759 896.272278,318.239197 883.620361,317.847168 
	C880.148682,317.739624 878.268250,319.238861 877.127563,321.606720 
	C870.190430,336.008057 848.599854,341.843048 832.657043,335.002594 
M749.053406,241.584869 
	C751.006592,230.792313 750.555481,220.141464 747.222168,209.648148 
	C738.521423,182.258194 714.196533,169.371887 688.593262,168.265381 
	C661.314026,167.086426 633.944336,168.000031 606.614136,168.000031 
	C605.506531,168.000031 604.398865,168.000031 603.244751,168.000031 
	C603.244751,235.230331 603.244751,301.963440 603.244751,368.752441 
	C616.895264,368.752441 630.299622,368.752441 644.099670,368.752441 
	C644.099670,343.102142 644.099670,317.696503 644.099670,292.000000 
	C658.295410,292.000000 672.103210,292.299316 685.891968,291.914612 
	C699.300476,291.540497 712.029236,288.178223 723.468811,280.865479 
	C737.600098,271.832092 746.064880,258.979553 749.053406,241.584869 
M997.000000,334.500000 
	C997.333313,313.259277 997.234253,291.998749 998.203674,270.787109 
	C998.616394,261.756470 1003.044312,253.971130 1010.905823,248.482666 
	C1018.480164,243.194778 1026.800171,241.371262 1035.803101,242.015549 
	C1047.693970,242.866531 1057.029419,248.035934 1062.911377,258.657379 
	C1066.863159,265.793274 1067.804932,273.780396 1067.888306,281.648560 
	C1068.177368,308.972931 1068.000000,336.302277 1068.000000,363.629730 
	C1068.000000,365.381683 1068.000000,367.133636 1068.000000,368.664246 
	C1082.076050,368.664246 1095.481567,368.664246 1109.000000,368.664246 
	C1109.000000,336.844238 1109.282349,305.355682 1108.815430,273.878235 
	C1108.687256,265.229736 1107.274780,256.326416 1104.779297,248.043884 
	C1099.566162,230.741440 1088.202759,218.645813 1071.280640,211.547424 
	C1060.969604,207.222244 1050.382568,206.702820 1039.591553,207.045700 
	C1029.765991,207.357925 1020.485535,209.963730 1012.211548,215.371109 
	C1007.010132,218.770508 1002.115540,222.639221 996.788574,226.511612 
	C996.788574,220.674774 996.788574,214.935150 996.788574,209.293457 
	C983.009583,209.293457 969.605408,209.293457 956.285767,209.293457 
	C956.285767,262.651337 956.285767,315.715302 956.285767,368.712952 
	C969.977478,368.712952 983.381592,368.712952 997.000000,368.712952 
	C997.000000,357.451416 997.000000,346.475708 997.000000,334.500000 
M1677.956177,255.890366 
	C1677.638306,254.975571 1677.206909,254.083374 1677.019775,253.142578 
	C1674.130737,238.623352 1666.349487,226.577957 1654.564697,218.566544 
	C1633.588745,204.306778 1610.525513,202.504272 1587.274780,213.145554 
	C1580.353027,216.313416 1574.383057,221.560974 1567.874390,225.924438 
	C1567.874390,220.699585 1567.874390,214.979813 1567.874390,209.311584 
	C1554.023926,209.311584 1540.630005,209.311584 1527.311768,209.311584 
	C1527.311768,262.669800 1527.311768,315.716675 1527.311768,368.666504 
	C1541.020874,368.666504 1554.415527,368.666504 1567.999512,368.666504 
	C1567.999512,337.695984 1567.516602,307.048523 1568.150391,276.424194 
	C1568.669922,251.321518 1586.466431,239.231964 1609.968018,242.319107 
	C1615.683228,243.069855 1621.584839,246.463043 1626.273071,250.096344 
	C1635.119263,256.952026 1637.992554,267.004944 1637.996948,277.929047 
	C1638.008179,306.415588 1638.000977,334.902161 1638.001099,363.388702 
	C1638.001099,365.159668 1638.001221,366.930664 1638.001221,368.700989 
	C1651.953003,368.700989 1665.346924,368.700989 1677.995239,368.700989 
	C1677.995239,331.188232 1677.995239,293.977600 1677.956177,255.890366 
z"/>
<path fill="#FFFFFF" opacity="1.000000" stroke="none" 
	d="
M135.835098,257.011230 
	C136.148849,278.071655 140.940369,297.956482 150.926956,316.609619 
	C162.435318,338.105164 178.720947,354.791290 199.622940,367.319458 
	C214.822006,376.429382 231.332474,381.769745 248.608536,383.768341 
	C271.659058,386.434906 294.035645,382.919891 315.495636,373.297852 
	C332.958374,365.468109 347.893829,354.395996 360.202087,340.078094 
	C374.240265,323.747864 384.101471,305.009460 387.963287,283.550262 
	C389.514832,274.928894 390.609283,266.225220 391.960999,257.231506 
	C434.048340,257.231506 476.775177,257.231506 520.570679,257.231506 
	C519.745605,266.460236 519.148438,275.570618 518.061218,284.622131 
	C516.959778,293.792511 515.819702,302.998505 513.920593,312.025635 
	C506.744293,346.137726 492.692871,377.424469 472.460236,405.634583 
	C462.859222,419.021210 451.741150,431.532806 440.009125,443.123779 
	C425.468323,457.489777 408.854767,469.438843 390.978333,479.621582 
	C368.190094,492.602142 343.942169,501.638977 318.538666,507.685181 
	C311.623688,509.330963 304.453003,509.892181 297.413483,511.036072 
	C296.368835,511.205841 295.400635,511.846100 294.698547,512.634399 
	C274.312439,513.000000 253.624878,513.000000 232.770081,512.635010 
	C231.933380,511.852295 231.306931,511.175934 230.587875,511.056366 
	C222.128601,509.649597 213.517899,508.893433 205.210770,506.878632 
	C175.997040,499.793091 148.524094,488.453125 123.359367,471.840790 
	C101.690590,457.536285 82.328712,440.697662 65.858864,420.493225 
	C53.979782,405.920624 43.509171,390.466248 35.046524,373.736115 
	C23.246239,350.407623 14.359454,325.999420 11.063619,299.923187 
	C9.263674,285.682281 8.432811,271.318878 7.623221,257.006714 
	C50.666050,257.005554 93.250572,257.008392 135.835098,257.011230 
z"/>
<path fill="#5CE1E6" opacity="1.000000" stroke="none" 
	d="
M135.907959,256.553986 
	C93.250572,257.008392 50.666050,257.005554 7.550288,256.545532 
	C7.346050,249.829483 7.462074,243.550751 8.049659,237.316467 
	C8.923745,228.042419 9.442567,218.655807 11.341765,209.574142 
	C15.145386,191.385849 20.318769,173.611847 27.702370,156.407364 
	C39.978870,127.801964 56.603878,102.123260 78.048943,79.751343 
	C87.676826,69.707336 98.614159,60.823486 109.524277,52.124264 
	C129.585709,36.128208 152.168793,24.577105 176.288239,15.914738 
	C193.735031,9.648824 211.491592,4.797805 229.993500,2.918886 
	C230.719803,2.845129 231.333710,1.664745 232.000000,0.999998 
	C242.354233,1.000000 252.708450,1.000000 263.531342,1.000000 
	C264.000000,43.441715 264.000000,85.883430 264.000000,129.137054 
	C229.218018,130.013321 198.907959,141.623398 174.068832,166.382233 
	C149.198410,191.172226 136.693985,221.104675 135.907959,256.553986 
z"/>
<path fill="#000000" opacity="1.000000" stroke="none" 
	d="
M231.531342,0.999998 
	C231.333710,1.664745 230.719803,2.845129 229.993500,2.918886 
	C211.491592,4.797805 193.735031,9.648824 176.288239,15.914738 
	C152.168793,24.577105 129.585709,36.128208 109.524277,52.124264 
	C98.614159,60.823486 87.676826,69.707336 78.048943,79.751343 
	C56.603878,102.123260 39.978870,127.801964 27.702370,156.407364 
	C20.318769,173.611847 15.145386,191.385849 11.341765,209.574142 
	C9.442567,218.655807 8.923745,228.042419 8.049659,237.316467 
	C7.462074,243.550751 7.346050,249.829483 7.091985,256.549500 
	C8.432811,271.318878 9.263674,285.682281 11.063619,299.923187 
	C14.359454,325.999420 23.246239,350.407623 35.046524,373.736115 
	C43.509171,390.466248 53.979782,405.920624 65.858864,420.493225 
	C82.328712,440.697662 101.690590,457.536285 123.359367,471.840790 
	C148.524094,488.453125 175.997040,499.793091 205.210770,506.878632 
	C213.517899,508.893433 222.128601,509.649597 230.587875,511.056366 
	C231.306931,511.175934 231.933380,511.852295 232.301422,512.635010 
	C155.034592,513.000000 78.069191,513.000000 1.051894,513.000000 
	C1.051894,342.444611 1.051894,171.889221 1.051894,1.000000 
	C77.687241,1.000000 154.374954,1.000000 231.531342,0.999998 
z"/>
<path fill="#5CE1E6" opacity="1.000000" stroke="none" 
	d="
M1146.001099,218.000000 
	C1146.001099,201.199707 1146.001099,184.899429 1146.001099,168.264435 
	C1147.676514,168.167053 1149.113281,168.011337 1150.550049,168.010651 
	C1180.532837,167.996552 1210.529297,167.460724 1240.492554,168.223846 
	C1255.848389,168.614944 1270.228027,173.874023 1281.418091,185.073868 
	C1289.812744,193.475708 1294.537842,203.669434 1295.149780,215.942963 
	C1295.733032,227.641678 1293.984253,238.451202 1286.961426,247.958817 
	C1281.110474,255.879639 1273.561279,261.796753 1264.078735,265.275177 
	C1269.263916,267.950531 1274.442993,270.059235 1279.015747,273.084290 
	C1294.791382,283.520447 1302.021484,304.754761 1299.389160,323.678711 
	C1295.819946,349.338013 1272.467651,364.629456 1250.682251,367.943359 
	C1245.990601,368.657074 1241.192749,368.939728 1236.442383,368.955078 
	C1208.292114,369.046143 1180.141479,369.000000 1151.990967,369.000000 
	C1150.185303,369.000000 1148.379517,369.000000 1146.001099,369.000000 
	C1146.001099,318.642670 1146.001099,268.571350 1146.001099,218.000000 
M1203.503418,335.999847 
	C1214.417603,335.666718 1225.460693,336.216003 1236.194458,334.647522 
	C1242.016113,333.796814 1248.887207,330.652435 1252.545898,326.260803 
	C1263.279297,313.377075 1259.591553,290.401917 1240.349365,284.829071 
	C1236.957153,283.846680 1233.372925,283.074921 1229.865356,283.023041 
	C1216.017578,282.818268 1202.164917,282.939026 1188.294189,282.939026 
	C1188.294189,300.279846 1188.294189,318.004974 1188.294189,335.999878 
	C1193.225708,335.999878 1197.865234,335.999878 1203.503418,335.999847 
M1229.272461,250.000473 
	C1236.320312,250.162277 1243.022339,247.726334 1247.317627,242.792786 
	C1257.091309,231.566910 1256.570190,206.709564 1236.574219,203.279190 
	C1220.813477,200.575348 1204.508057,201.046051 1187.999634,200.080750 
	C1187.999634,209.421967 1187.999756,217.373154 1187.999756,225.324356 
	C1187.999756,233.428558 1187.999634,241.532745 1187.999634,250.000656 
	C1201.763916,250.000656 1215.042480,250.000656 1229.272461,250.000473 
z"/>
<path fill="#5CE1E6" opacity="1.000000" stroke="none" 
	d="
M1466.000366,209.000854 
	C1473.471313,209.000854 1480.442383,209.000854 1487.705200,209.000854 
	C1487.705200,262.313049 1487.705200,315.353668 1487.705200,368.697418 
	C1474.356689,368.697418 1460.964233,368.697418 1447.129395,368.697418 
	C1447.129395,361.674561 1447.129395,354.627808 1447.129395,346.442993 
	C1439.330811,356.460510 1430.422729,363.015350 1419.564575,367.223694 
	C1404.848389,372.927368 1389.979492,373.730408 1374.968994,369.422577 
	C1347.203125,361.454163 1331.078857,341.984772 1324.266357,314.841248 
	C1321.629150,304.333679 1320.892944,293.036224 1321.235718,282.159882 
	C1321.906494,260.875885 1329.151611,241.631271 1344.372314,226.321167 
	C1356.059570,214.565277 1370.482666,208.418442 1387.289795,206.808121 
	C1406.137573,205.002319 1422.541504,210.017075 1437.379150,221.151276 
	C1440.794312,223.714035 1443.737671,226.905563 1446.715820,229.640305 
	C1446.715820,223.562027 1446.715820,216.589981 1446.715820,209.000854 
	C1453.311035,209.000854 1459.405762,209.000854 1466.000366,209.000854 
M1385.714111,247.039352 
	C1381.124756,251.149429 1375.882568,254.733002 1372.065552,259.466003 
	C1359.422119,275.143890 1360.688354,303.384979 1372.174316,318.928741 
	C1386.522705,338.345917 1414.739136,341.648682 1432.549072,324.859131 
	C1444.163696,313.910065 1447.221802,300.037781 1446.178955,284.458282 
	C1445.333496,271.827240 1440.527832,261.742401 1431.596069,252.953232 
	C1421.117432,242.641891 1399.347900,239.510712 1385.714111,247.039352 
z"/>
<path fill="#5CE1E6" opacity="1.000000" stroke="none" 
	d="
M1795.812256,287.687042 
	C1795.394043,288.813385 1794.749268,290.081543 1795.100464,290.486755 
	C1800.595459,296.828400 1806.244019,303.036652 1811.808228,309.319061 
	C1824.451904,323.595215 1837.051270,337.910675 1849.706665,352.176361 
	C1853.429565,356.372986 1857.281372,360.455078 1861.072144,364.591492 
	C1862.120361,365.735107 1863.161255,366.885406 1865.085693,369.000000 
	C1858.207153,369.000000 1852.631348,369.000000 1847.055664,369.000000 
	C1838.226807,369.000000 1829.300293,368.188416 1820.597412,369.235382 
	C1812.406006,370.220856 1808.316528,366.019287 1804.048828,360.470734 
	C1794.410400,347.939636 1784.510376,335.609650 1774.702148,323.209473 
	C1769.448975,316.568054 1764.165894,309.950378 1758.260864,302.522583 
	C1758.260864,325.075470 1758.260864,346.723633 1758.260864,368.684174 
	C1744.381226,368.684174 1730.987305,368.684174 1717.295898,368.684174 
	C1717.295898,297.689636 1717.295898,226.650955 1717.295898,155.306274 
	C1730.643677,155.306274 1744.036987,155.306274 1757.860962,155.306274 
	C1757.860962,194.994095 1757.860962,234.693741 1757.860962,275.979584 
	C1763.522705,268.926422 1768.280029,263.058655 1772.973389,257.140076 
	C1781.278931,246.665985 1789.533447,236.151245 1797.835571,225.674286 
	C1800.675903,222.089813 1804.114990,218.863571 1806.346069,214.941971 
	C1809.113647,210.077072 1812.761108,208.791489 1818.070557,208.896835 
	C1833.056519,209.194229 1848.052124,209.000809 1864.560181,209.000809 
	C1841.273804,235.657394 1818.661377,261.542450 1795.812256,287.687042 
z"/>
<path fill="#FFFFFF" opacity="1.000000" stroke="none" 
	d="
M833.064331,335.027008 
	C848.599854,341.843048 870.190430,336.008057 877.127563,321.606720 
	C878.268250,319.238861 880.148682,317.739624 883.620361,317.847168 
	C896.272278,318.239197 908.943420,318.008759 921.607361,318.025269 
	C921.925415,318.025696 922.243347,318.169220 923.469238,318.465179 
	C922.301758,321.582245 921.281250,324.656097 920.016663,327.626007 
	C911.778015,346.974182 897.503357,360.284424 877.957520,367.353088 
	C864.324463,372.283417 850.044556,373.006622 835.473389,371.160248 
	C821.288696,369.362915 808.696899,364.253815 797.434753,355.829834 
	C782.819519,344.897644 774.021484,329.866974 770.261475,312.323669 
	C765.441040,289.832336 766.544983,267.444916 777.225342,246.629547 
	C788.422913,224.805908 806.773682,212.247940 830.967651,207.949585 
	C850.556885,204.469345 869.551697,206.259796 887.274109,215.175156 
	C909.663391,226.438232 921.998596,245.564438 925.834778,269.977020 
	C927.209290,278.723816 926.642822,287.772736 927.011414,296.681732 
	C927.168518,300.478455 925.867249,302.107758 921.649719,302.089050 
	C886.324524,301.932434 850.998413,302.000000 815.672546,302.000000 
	C813.875366,302.000000 812.078186,302.000000 810.298889,302.000000 
	C809.867554,315.686646 818.711548,329.477448 833.064331,335.027008 
M884.040833,270.258606 
	C884.265747,263.490875 881.115601,258.121643 876.800537,253.339523 
	C867.573608,243.113937 856.117432,239.453766 842.430054,240.897736 
	C824.563354,242.782593 811.766968,256.346222 810.339417,274.000000 
	C816.664551,274.000000 822.969666,274.000000 829.274780,274.000000 
	C846.576599,274.000000 863.878601,274.028320 881.180115,273.955475 
	C882.880493,273.948303 886.234009,275.163116 884.040833,270.258606 
z"/>
<path fill="#FFFFFF" opacity="1.000000" stroke="none" 
	d="
M749.028809,242.030701 
	C746.064880,258.979553 737.600098,271.832092 723.468811,280.865479 
	C712.029236,288.178223 699.300476,291.540497 685.891968,291.914612 
	C672.103210,292.299316 658.295410,292.000000 644.099670,292.000000 
	C644.099670,317.696503 644.099670,343.102142 644.099670,368.752441 
	C630.299622,368.752441 616.895264,368.752441 603.244751,368.752441 
	C603.244751,301.963440 603.244751,235.230331 603.244751,168.000031 
	C604.398865,168.000031 605.506531,168.000031 606.614136,168.000031 
	C633.944336,168.000031 661.314026,167.086426 688.593262,168.265381 
	C714.196533,169.371887 738.521423,182.258194 747.222168,209.648148 
	C750.555481,220.141464 751.006592,230.792313 749.028809,242.030701 
M690.910400,256.610687 
	C695.902283,254.897720 699.916931,252.139297 703.137207,247.699020 
	C708.248352,240.651398 708.710022,232.712646 707.838623,224.819855 
	C706.652649,214.077896 701.059143,205.011444 690.040161,203.345596 
	C675.014648,201.074036 659.646729,201.066956 644.205688,200.074875 
	C644.205688,220.499329 644.205688,239.558807 644.205688,259.000000 
	C650.189331,259.000000 655.987183,259.237000 661.758362,258.946350 
	C671.234924,258.469147 680.694214,257.649597 690.910400,256.610687 
z"/>
<path fill="#FFFFFF" opacity="1.000000" stroke="none" 
	d="
M997.000000,335.000000 
	C997.000000,346.475708 997.000000,357.451416 997.000000,368.712952 
	C983.381592,368.712952 969.977478,368.712952 956.285767,368.712952 
	C956.285767,315.715302 956.285767,262.651337 956.285767,209.293457 
	C969.605408,209.293457 983.009583,209.293457 996.788574,209.293457 
	C996.788574,214.935150 996.788574,220.674774 996.788574,226.511612 
	C1002.115540,222.639221 1007.010132,218.770508 1012.211548,215.371109 
	C1020.485535,209.963730 1029.765991,207.357925 1039.591553,207.045700 
	C1050.382568,206.702820 1060.969604,207.222244 1071.280640,211.547424 
	C1088.202759,218.645813 1099.566162,230.741440 1104.779297,248.043884 
	C1107.274780,256.326416 1108.687256,265.229736 1108.815430,273.878235 
	C1109.282349,305.355682 1109.000000,336.844238 1109.000000,368.664246 
	C1095.481567,368.664246 1082.076050,368.664246 1068.000000,368.664246 
	C1068.000000,367.133636 1068.000000,365.381683 1068.000000,363.629730 
	C1068.000000,336.302277 1068.177368,308.972931 1067.888306,281.648560 
	C1067.804932,273.780396 1066.863159,265.793274 1062.911377,258.657379 
	C1057.029419,248.035934 1047.693970,242.866531 1035.803101,242.015549 
	C1026.800171,241.371262 1018.480164,243.194778 1010.905823,248.482666 
	C1003.044312,253.971130 998.616394,261.756470 998.203674,270.787109 
	C997.234253,291.998749 997.333313,313.259277 997.000000,335.000000 
z"/>
<path fill="#5CE1E6" opacity="1.000000" stroke="none" 
	d="
M1677.975708,256.328644 
	C1677.995239,293.977600 1677.995239,331.188232 1677.995239,368.700989 
	C1665.346924,368.700989 1651.953003,368.700989 1638.001221,368.700989 
	C1638.001221,366.930664 1638.001099,365.159668 1638.001099,363.388702 
	C1638.000977,334.902161 1638.008179,306.415588 1637.996948,277.929047 
	C1637.992554,267.004944 1635.119263,256.952026 1626.273071,250.096344 
	C1621.584839,246.463043 1615.683228,243.069855 1609.968018,242.319107 
	C1586.466431,239.231964 1568.669922,251.321518 1568.150391,276.424194 
	C1567.516602,307.048523 1567.999512,337.695984 1567.999512,368.666504 
	C1554.415527,368.666504 1541.020874,368.666504 1527.311768,368.666504 
	C1527.311768,315.716675 1527.311768,262.669800 1527.311768,209.311584 
	C1540.630005,209.311584 1554.023926,209.311584 1567.874390,209.311584 
	C1567.874390,214.979813 1567.874390,220.699585 1567.874390,225.924438 
	C1574.383057,221.560974 1580.353027,216.313416 1587.274780,213.145554 
	C1610.525513,202.504272 1633.588745,204.306778 1654.564697,218.566544 
	C1666.349487,226.577957 1674.130737,238.623352 1677.019775,253.142578 
	C1677.206909,254.083374 1677.638306,254.975571 1677.975708,256.328644 
z"/>
<path fill="#5CE1E6" opacity="1.000000" stroke="none" 
	d="
M343.835297,256.988525 
	C343.943359,276.089142 337.661743,292.798767 325.847992,307.806183 
	C317.071747,318.954926 305.815216,326.498871 293.084137,331.829437 
	C284.711639,335.335022 275.755341,336.857666 266.458008,337.171143 
	C251.145325,337.687439 236.925720,334.470795 223.774902,326.912109 
	C203.082611,315.018829 189.789902,297.483734 185.053833,273.894287 
	C183.997772,268.634399 183.678162,263.226593 183.549866,257.441101 
	C237.331924,256.993042 290.583618,256.990784 343.835297,256.988525 
z"/>
<path fill="#FFFFFF" opacity="1.000000" stroke="none" 
	d="
M343.911652,256.540344 
	C290.583618,256.990784 237.331924,256.993042 183.622437,256.991821 
	C183.068268,238.192856 189.211853,221.687256 200.581070,206.742386 
	C207.695084,197.390991 216.726974,190.470245 226.808029,185.257675 
	C237.411072,179.775253 248.985352,177.126343 261.237000,176.836563 
	C279.644135,176.401184 296.061188,181.609451 310.883148,192.061539 
	C318.891266,197.708694 325.108154,204.914886 330.583649,213.354797 
	C339.171265,226.591660 343.290497,240.664398 343.911652,256.540344 
z"/>
<path fill="#000000" opacity="1.000000" stroke="none" 
	d="
M1203.004150,335.999878 
	C1197.865234,335.999878 1193.225708,335.999878 1188.294189,335.999878 
	C1188.294189,318.004974 1188.294189,300.279846 1188.294189,282.939026 
	C1202.164917,282.939026 1216.017578,282.818268 1229.865356,283.023041 
	C1233.372925,283.074921 1236.957153,283.846680 1240.349365,284.829071 
	C1259.591553,290.401917 1263.279297,313.377075 1252.545898,326.260803 
	C1248.887207,330.652435 1242.016113,333.796814 1236.194458,334.647522 
	C1225.460693,336.216003 1214.417603,335.666718 1203.004150,335.999878 
z"/>
<path fill="#000000" opacity="1.000000" stroke="none" 
	d="
M1228.796875,250.000565 
	C1215.042480,250.000656 1201.763916,250.000656 1187.999634,250.000656 
	C1187.999634,241.532745 1187.999756,233.428558 1187.999756,225.324356 
	C1187.999756,217.373154 1187.999634,209.421967 1187.999634,200.080750 
	C1204.508057,201.046051 1220.813477,200.575348 1236.574219,203.279190 
	C1256.570190,206.709564 1257.091309,231.566910 1247.317627,242.792786 
	C1243.022339,247.726334 1236.320312,250.162277 1228.796875,250.000565 
z"/>
<path fill="#000000" opacity="1.000000" stroke="none" 
	d="
M1386.097656,246.984375 
	C1399.347900,239.510712 1421.117432,242.641891 1431.596069,252.953232 
	C1440.527832,261.742401 1445.333496,271.827240 1446.178955,284.458282 
	C1447.221802,300.037781 1444.163696,313.910065 1432.549072,324.859131 
	C1414.739136,341.648682 1386.522705,338.345917 1372.174316,318.928741 
	C1360.688354,303.384979 1359.422119,275.143890 1372.065552,259.466003 
	C1375.882568,254.733002 1381.124756,251.149429 1386.097656,246.984375 
z"/>
<path fill="#000000" opacity="1.000000" stroke="none" 
	d="
M884.274414,270.634583 
	C886.234009,275.163116 882.880493,273.948303 881.180115,273.955475 
	C863.878601,274.028320 846.576599,274.000000 829.274780,274.000000 
	C822.969666,274.000000 816.664551,274.000000 810.339417,274.000000 
	C811.766968,256.346222 824.563354,242.782593 842.430054,240.897736 
	C856.117432,239.453766 867.573608,243.113937 876.800537,253.339523 
	C881.115601,258.121643 884.265747,263.490875 884.274414,270.634583 
z"/>
<path fill="#000000" opacity="1.000000" stroke="none" 
	d="
M690.535645,256.792542 
	C680.694214,257.649597 671.234924,258.469147 661.758362,258.946350 
	C655.987183,259.237000 650.189331,259.000000 644.205688,259.000000 
	C644.205688,239.558807 644.205688,220.499329 644.205688,200.074875 
	C659.646729,201.066956 675.014648,201.074036 690.040161,203.345596 
	C701.059143,205.011444 706.652649,214.077896 707.838623,224.819855 
	C708.710022,232.712646 708.248352,240.651398 703.137207,247.699020 
	C699.916931,252.139297 695.902283,254.897720 690.535645,256.792542 
z"/>
</svg>